<mxfile host="Electron" agent="Mozilla/5.0 (Windows NT 10.0; Win64; x64) AppleWebKit/537.36 (KHTML, like Gecko) draw.io/24.7.17 Chrome/128.0.6613.36 Electron/32.0.1 Safari/537.36" version="24.7.17">
  <diagram id="z36O1d0HHEMsO6aqUlWj" name="Page-1">
    <mxGraphModel dx="983" dy="-3197" grid="1" gridSize="10" guides="1" tooltips="1" connect="1" arrows="1" fold="1" page="0" pageScale="1" pageWidth="1100" pageHeight="850" background="none" math="0" shadow="0">
      <root>
        <mxCell id="0" />
        <mxCell id="1" parent="0" />
        <mxCell id="node28" value="&lt;p style=&quot;margin:0px;margin-top:4px;text-align:center;&quot;&gt;&lt;b&gt;abc.ABC&lt;/b&gt;&lt;/p&gt;&lt;hr size=&quot;1&quot;/&gt;&lt;p style=&quot;margin:0 0 0 4px;line-height:1.6;&quot;&gt; __slots__: &lt;/p&gt;" style="verticalAlign=top;align=left;overflow=fill;fontSize=14;fontFamily=Helvetica;html=1;rounded=0;shadow=0;comic=0;labelBackgroundColor=none;strokeWidth=1;" parent="1" vertex="1">
          <mxGeometry x="563" y="4070" width="89" height="64" as="geometry" />
        </mxCell>
        <mxCell id="node18" value="&lt;p style=&quot;margin:0px;margin-top:4px;text-align:center;&quot;&gt;&lt;b&gt;core.basemodel.BaseModel&lt;/b&gt;&lt;/p&gt;&lt;hr size=&quot;1&quot;/&gt;&lt;p style=&quot;margin:0 0 0 4px;line-height:1.6;&quot;&gt; BaseModel.Config: &lt;/p&gt;&lt;hr size=&quot;1&quot;/&gt;&lt;p style=&quot;margin:0 0 0 4px;line-height:1.6;&quot;&gt; __init__(self, **data: Any): &lt;br/&gt; is_file_link(self): &lt;br/&gt; is_intermediate_link(self): &lt;br/&gt; show_tree(self, indent=0): &lt;br/&gt; _apply_recurse(self, f, *args, **kwargs): &lt;br/&gt; _get_identifier(self, data: dict): &lt;/p&gt;" style="verticalAlign=top;align=left;overflow=fill;fontSize=14;fontFamily=Helvetica;html=1;rounded=0;shadow=0;comic=0;labelBackgroundColor=none;strokeWidth=1;" parent="1" vertex="1">
          <mxGeometry x="1028" y="3780" width="279" height="198" as="geometry" />
        </mxCell>
        <mxCell id="node16" value="&lt;p style=&quot;margin:0px;margin-top:4px;text-align:center;&quot;&gt;&lt;b&gt;core.basemodel.FileModel&lt;/b&gt;&lt;/p&gt;&lt;hr size=&quot;1&quot;/&gt;&lt;p style=&quot;margin:0 0 0 4px;line-height:1.6;&quot;&gt; _has_been_loaded_from_cache: &lt;br/&gt; filepath: &lt;br/&gt; context: &lt;br/&gt; _absolute_anchor_path: &lt;br/&gt; __slots__: &lt;br/&gt; _file_models_cache: &lt;br/&gt; filepath: &lt;br/&gt; _absolute_anchor_path: &lt;/p&gt;&lt;hr size=&quot;1&quot;/&gt;&lt;p style=&quot;margin:0 0 0 4px;line-height:1.6;&quot;&gt; __new__(cls, filepath: Optional[PathOrStr] = None, *args, **kwargs): &lt;br/&gt; __init__(         self,         filepath: Optional[PathOrStr] = None,         resolve_casing: bool = False,         recurse: bool = True,         path_style: Optional[str] = None,         *args,         **kwargs,     ): &lt;br/&gt; _should_load_model(cls, context: FileLoadContext): &lt;br/&gt; _post_init_load(self): &lt;br/&gt; _resolved_filepath(self): &lt;br/&gt; save_location(self): &lt;br/&gt; is_file_link(self): &lt;br/&gt; _get_updated_file_path(self, file_path: Path, loading_path: Path): &lt;br/&gt; validate(cls: Type[&amp;quot;FileModel&amp;quot;], value: Any): &lt;br/&gt; save(         self,         filepath: Optional[Path] = None,         recurse: bool = False,         path_style: Optional[str] = None,         exclude_unset: bool = False,     ): &lt;br/&gt; _save_instance(self, save_settings: ModelSaveSettings): &lt;br/&gt; _save_tree(         self, context: FileLoadContext, save_settings: ModelSaveSettings     ): &lt;br/&gt; synchronize_filepaths(self): &lt;br/&gt; _relative_mode(self): &lt;br/&gt; _get_relative_mode_from_data(cls, data: Dict[str, Any]): &lt;br/&gt; _generate_name(cls): &lt;br/&gt; _save(self, save_settings: ModelSaveSettings): &lt;br/&gt; _load(self, filepath: Path): &lt;br/&gt; __str__(self): &lt;br/&gt; _change_to_path(filepath): &lt;br/&gt; _conform_filepath_to_pathlib(cls, value): &lt;/p&gt;" style="verticalAlign=top;align=left;overflow=fill;fontSize=14;fontFamily=Helvetica;html=1;rounded=0;shadow=0;comic=0;labelBackgroundColor=none;strokeWidth=1;" parent="1" vertex="1">
          <mxGeometry x="1125" y="4287" width="405" height="704" as="geometry" />
        </mxCell>
        <mxCell id="node17" value="&lt;p style=&quot;margin:0px;margin-top:4px;text-align:center;&quot;&gt;&lt;b&gt;core.basemodel.ParsableFileModel&lt;/b&gt;&lt;/p&gt;&lt;hr size=&quot;1&quot;/&gt;&lt;p style=&quot;margin:0 0 0 4px;line-height:1.6;&quot;&gt; serializer_config: &lt;/p&gt;&lt;hr size=&quot;1&quot;/&gt;&lt;p style=&quot;margin:0 0 0 4px;line-height:1.6;&quot;&gt; _load(self, filepath: Path): &lt;br/&gt; _save(self, save_settings: ModelSaveSettings): &lt;br/&gt; _serialize(self, data: dict, save_settings: ModelSaveSettings): &lt;br/&gt; dict(self, *args, **kwargs): &lt;br/&gt; _exclude_fields(cls): &lt;br/&gt; _parse(cls, path: Path): &lt;br/&gt; _generate_name(cls): &lt;br/&gt; _filename(cls): &lt;br/&gt; _ext(cls): &lt;br/&gt; _get_serializer(         cls,     ): &lt;br/&gt; _get_parser(cls): &lt;br/&gt; _get_identifier(self, data: dict): &lt;/p&gt;" style="verticalAlign=top;align=left;overflow=fill;fontSize=14;fontFamily=Helvetica;html=1;rounded=0;shadow=0;comic=0;labelBackgroundColor=none;strokeWidth=1;" parent="1" vertex="1">
          <mxGeometry x="909" y="5331" width="396" height="336" as="geometry" />
        </mxCell>
        <mxCell id="node27" value="&lt;p style=&quot;margin:0px;margin-top:4px;text-align:center;&quot;&gt;&lt;b&gt;core.dflowfm.ini.models.INIBasedModel&lt;/b&gt;&lt;/p&gt;&lt;hr size=&quot;1&quot;/&gt;&lt;p style=&quot;margin:0 0 0 4px;line-height:1.6;&quot;&gt; _header: &lt;br/&gt; _file_path_style_converter: &lt;br/&gt; _scientific_notation_regex: &lt;br/&gt; comments: &lt;/p&gt;&lt;hr size=&quot;1&quot;/&gt;&lt;p style=&quot;margin:0 0 0 4px;line-height:1.6;&quot;&gt; INIBasedModel.Config: &lt;br/&gt; INIBasedModel.Comments: &lt;/p&gt;&lt;hr size=&quot;1&quot;/&gt;&lt;p style=&quot;margin:0 0 0 4px;line-height:1.6;&quot;&gt; _get_unknown_keyword_error_manager(cls): &lt;br/&gt; _supports_comments(cls): &lt;br/&gt; _duplicate_keys_as_list(cls): &lt;br/&gt; get_list_delimiter(cls): &lt;br/&gt; get_list_field_delimiter(cls, field_key: str): &lt;br/&gt; _validate_unknown_keywords(cls, values): &lt;br/&gt; _skip_nones_and_set_header(cls, values): &lt;br/&gt; comments_matches_has_comments(cls, v): &lt;br/&gt; replace_fortran_scientific_notation_for_floats(cls, value, field): &lt;br/&gt; _replace_fortran_scientific_notation(cls, value): &lt;br/&gt; validate(cls: Type[&amp;quot;INIBasedModel&amp;quot;], value: Any): &lt;br/&gt; _exclude_fields(cls): &lt;br/&gt; _convert_value(         self,         key: str,         v: Any,         config: INISerializerConfig,         save_settings: ModelSaveSettings,     ): &lt;br/&gt; _to_section(         self, config: INISerializerConfig, save_settings: ModelSaveSettings     ): &lt;br/&gt; _should_be_serialized(self, key: str, value: Any, save_settings: ModelSaveSettings): &lt;br/&gt; _is_union(field_type: type): &lt;br/&gt; _union_has_filemodel(field_type: type): &lt;br/&gt; _is_list(field_type: type): &lt;br/&gt; _value_is_not_none_or_type_is_filemodel(field_type: type, value: Any): &lt;/p&gt;" style="verticalAlign=top;align=left;overflow=fill;fontSize=14;fontFamily=Helvetica;html=1;rounded=0;shadow=0;comic=0;labelBackgroundColor=none;strokeWidth=1;" parent="1" vertex="1">
          <mxGeometry x="348" y="4333" width="398" height="613" as="geometry" />
        </mxCell>
        <mxCell id="node3" value="&lt;p style=&quot;margin:0px;margin-top:4px;text-align:center;&quot;&gt;&lt;b&gt;core.dflowfm.ini.models.INIGeneral&lt;/b&gt;&lt;/p&gt;&lt;hr size=&quot;1&quot;/&gt;&lt;p style=&quot;margin:0 0 0 4px;line-height:1.6;&quot;&gt; _header: &lt;br/&gt; fileversion: &lt;br/&gt; filetype: &lt;/p&gt;&lt;hr size=&quot;1&quot;/&gt;&lt;p style=&quot;margin:0 0 0 4px;line-height:1.6;&quot;&gt; _supports_comments(cls): &lt;/p&gt;" style="verticalAlign=top;align=left;overflow=fill;fontSize=14;fontFamily=Helvetica;html=1;rounded=0;shadow=0;comic=0;labelBackgroundColor=none;strokeWidth=1;" parent="1" vertex="1">
          <mxGeometry x="623" y="5075" width="249" height="139" as="geometry" />
        </mxCell>
        <mxCell id="node7" value="&lt;p style=&quot;margin:0px;margin-top:4px;text-align:center;&quot;&gt;&lt;b&gt;core.dflowfm.ini.models.INIModel&lt;/b&gt;&lt;/p&gt;&lt;hr size=&quot;1&quot;/&gt;&lt;p style=&quot;margin:0 0 0 4px;line-height:1.6;&quot;&gt; serializer_config: &lt;br/&gt; general: &lt;/p&gt;&lt;hr size=&quot;1&quot;/&gt;&lt;p style=&quot;margin:0 0 0 4px;line-height:1.6;&quot;&gt; _ext(cls): &lt;br/&gt; _filename(cls): &lt;br/&gt; _get_serializer(cls): &lt;br/&gt; _get_parser(cls): &lt;br/&gt; _to_document(self, save_settings: ModelSaveSettings): &lt;br/&gt; _serialize(self, _: dict, save_settings: ModelSaveSettings): &lt;/p&gt;" style="verticalAlign=top;align=left;overflow=fill;fontSize=14;fontFamily=Helvetica;html=1;rounded=0;shadow=0;comic=0;labelBackgroundColor=none;strokeWidth=1;" parent="1" vertex="1">
          <mxGeometry x="1134" y="5949" width="387" height="221" as="geometry" />
        </mxCell>
        <mxCell id="node9" value="&lt;p style=&quot;margin:0px;margin-top:4px;text-align:center;&quot;&gt;&lt;b&gt;core.dflowfm.inifield.models.AbstractSpatialField&lt;/b&gt;&lt;/p&gt;&lt;hr size=&quot;1&quot;/&gt;&lt;p style=&quot;margin:0 0 0 4px;line-height:1.6;&quot;&gt; comments: &lt;br/&gt; quantity: &lt;br/&gt; datafile: &lt;br/&gt; datafiletype: &lt;br/&gt; interpolationmethod: &lt;br/&gt; operand: &lt;br/&gt; averagingtype: &lt;br/&gt; averagingrelsize: &lt;br/&gt; averagingnummin: &lt;br/&gt; averagingpercentile: &lt;br/&gt; extrapolationmethod: &lt;br/&gt; locationtype: &lt;br/&gt; value: &lt;br/&gt; datafiletype_validator: &lt;br/&gt; interpolationmethod_validator: &lt;br/&gt; operand_validator: &lt;br/&gt; averagingtype_validator: &lt;br/&gt; locationtype_validator: &lt;/p&gt;&lt;hr size=&quot;1&quot;/&gt;&lt;p style=&quot;margin:0 0 0 4px;line-height:1.6;&quot;&gt; AbstractSpatialField.Comments: &lt;/p&gt;&lt;hr size=&quot;1&quot;/&gt;&lt;p style=&quot;margin:0 0 0 4px;line-height:1.6;&quot;&gt; validate_that_value_is_present_for_polygons(cls, values: Dict): &lt;br/&gt; _validate_value_and_filetype(cls, v, values: dict): &lt;/p&gt;" style="verticalAlign=top;align=left;overflow=fill;fontSize=14;fontFamily=Helvetica;html=1;rounded=0;shadow=0;comic=0;labelBackgroundColor=none;strokeWidth=1;" parent="1" vertex="1">
          <mxGeometry x="127" y="5239" width="401" height="521" as="geometry" />
        </mxCell>
        <mxCell id="node6" value="&lt;p style=&quot;margin:0px;margin-top:4px;text-align:center;&quot;&gt;&lt;b&gt;core.dflowfm.inifield.models.AveragingType&lt;/b&gt;&lt;/p&gt;&lt;hr size=&quot;1&quot;/&gt;&lt;p style=&quot;margin:0 0 0 4px;line-height:1.6;&quot;&gt; mean: &lt;br/&gt; nearestnb: &lt;br/&gt; max: &lt;br/&gt; min: &lt;br/&gt; invdist: &lt;br/&gt; minabs: &lt;br/&gt; allowedvaluestext: &lt;/p&gt;" style="verticalAlign=top;align=left;overflow=fill;fontSize=14;fontFamily=Helvetica;html=1;rounded=0;shadow=0;comic=0;labelBackgroundColor=none;strokeWidth=1;" parent="1" vertex="1">
          <mxGeometry x="-185" y="4001" width="305" height="197" as="geometry" />
        </mxCell>
        <mxCell id="node23" value="&lt;p style=&quot;margin:0px;margin-top:4px;text-align:center;&quot;&gt;&lt;b&gt;core.dflowfm.inifield.models.DataFileType&lt;/b&gt;&lt;/p&gt;&lt;hr size=&quot;1&quot;/&gt;&lt;p style=&quot;margin:0 0 0 4px;line-height:1.6;&quot;&gt; arcinfo: &lt;br/&gt; geotiff: &lt;br/&gt; sample: &lt;br/&gt; onedfield: &lt;br/&gt; polygon: &lt;br/&gt; allowedvaluestext: &lt;/p&gt;" style="verticalAlign=top;align=left;overflow=fill;fontSize=14;fontFamily=Helvetica;html=1;rounded=0;shadow=0;comic=0;labelBackgroundColor=none;strokeWidth=1;" parent="1" vertex="1">
          <mxGeometry x="1" y="3792" width="293" height="174" as="geometry" />
        </mxCell>
        <mxCell id="node24" value="&lt;p style=&quot;margin:0px;margin-top:4px;text-align:center;&quot;&gt;&lt;b&gt;core.dflowfm.inifield.models.IniFieldGeneral&lt;/b&gt;&lt;/p&gt;&lt;hr size=&quot;1&quot;/&gt;&lt;p style=&quot;margin:0 0 0 4px;line-height:1.6;&quot;&gt; comments: &lt;br/&gt; _header: &lt;br/&gt; fileversion: &lt;br/&gt; filetype: &lt;/p&gt;&lt;hr size=&quot;1&quot;/&gt;&lt;p style=&quot;margin:0 0 0 4px;line-height:1.6;&quot;&gt; IniFieldGeneral.Comments: &lt;/p&gt;" style="verticalAlign=top;align=left;overflow=fill;fontSize=14;fontFamily=Helvetica;html=1;rounded=0;shadow=0;comic=0;labelBackgroundColor=none;strokeWidth=1;" parent="1" vertex="1">
          <mxGeometry x="735" y="5983" width="304" height="152" as="geometry" />
        </mxCell>
        <mxCell id="node19" value="&lt;p style=&quot;margin:0px;margin-top:4px;text-align:center;&quot;&gt;&lt;b&gt;core.dflowfm.inifield.models.IniFieldModel&lt;/b&gt;&lt;/p&gt;&lt;hr size=&quot;1&quot;/&gt;&lt;p style=&quot;margin:0 0 0 4px;line-height:1.6;&quot;&gt; general: &lt;br/&gt; initial: &lt;br/&gt; parameter: &lt;br/&gt; _split_to_list: &lt;/p&gt;&lt;hr size=&quot;1&quot;/&gt;&lt;p style=&quot;margin:0 0 0 4px;line-height:1.6;&quot;&gt; _ext(cls): &lt;br/&gt; _filename(cls): &lt;/p&gt;" style="verticalAlign=top;align=left;overflow=fill;fontSize=14;fontFamily=Helvetica;html=1;rounded=0;shadow=0;comic=0;labelBackgroundColor=none;strokeWidth=1;" parent="1" vertex="1">
          <mxGeometry x="960" y="6272" width="294" height="175" as="geometry" />
        </mxCell>
        <mxCell id="node12" value="&lt;p style=&quot;margin:0px;margin-top:4px;text-align:center;&quot;&gt;&lt;b&gt;core.dflowfm.inifield.models.InitialField&lt;/b&gt;&lt;/p&gt;&lt;hr size=&quot;1&quot;/&gt;&lt;p style=&quot;margin:0 0 0 4px;line-height:1.6;&quot;&gt; _header: &lt;/p&gt;" style="verticalAlign=top;align=left;overflow=fill;fontSize=14;fontFamily=Helvetica;html=1;rounded=0;shadow=0;comic=0;labelBackgroundColor=none;strokeWidth=1;" parent="1" vertex="1">
          <mxGeometry x="-30" y="6030" width="275" height="64" as="geometry" />
        </mxCell>
        <mxCell id="node8" value="&lt;p style=&quot;margin:0px;margin-top:4px;text-align:center;&quot;&gt;&lt;b&gt;core.dflowfm.inifield.models.InterpolationMethod&lt;/b&gt;&lt;/p&gt;&lt;hr size=&quot;1&quot;/&gt;&lt;p style=&quot;margin:0 0 0 4px;line-height:1.6;&quot;&gt; constant: &lt;br/&gt; triangulation: &lt;br/&gt; averaging: &lt;br/&gt; allowedvaluestext: &lt;/p&gt;" style="verticalAlign=top;align=left;overflow=fill;fontSize=14;fontFamily=Helvetica;html=1;rounded=0;shadow=0;comic=0;labelBackgroundColor=none;strokeWidth=1;" parent="1" vertex="1">
          <mxGeometry x="178" y="4035" width="338" height="138" as="geometry" />
        </mxCell>
        <mxCell id="node13" value="&lt;p style=&quot;margin:0px;margin-top:4px;text-align:center;&quot;&gt;&lt;b&gt;core.dflowfm.inifield.models.ParameterField&lt;/b&gt;&lt;/p&gt;&lt;hr size=&quot;1&quot;/&gt;&lt;p style=&quot;margin:0 0 0 4px;line-height:1.6;&quot;&gt; _header: &lt;/p&gt;" style="verticalAlign=top;align=left;overflow=fill;fontSize=14;fontFamily=Helvetica;html=1;rounded=0;shadow=0;comic=0;labelBackgroundColor=none;strokeWidth=1;" parent="1" vertex="1">
          <mxGeometry x="135" y="5850" width="304" height="64" as="geometry" />
        </mxCell>
        <mxCell id="edge4" value="" style="html=1;rounded=1;edgeStyle=orthogonalEdgeStyle;dashed=0;startArrow=block;startSize=12;endArrow=none;strokeColor=#595959;exitX=0.500;exitY=0.000;exitDx=0;exitDy=0;entryX=0.250;entryY=0.001;entryDx=0;entryDy=0;" parent="1" source="node16" target="node28" edge="1">
          <mxGeometry width="50" height="50" relative="1" as="geometry">
            <Array as="points">
              <mxPoint x="1327" y="4219" />
              <mxPoint x="547" y="4219" />
              <mxPoint x="547" y="4039" />
              <mxPoint x="585" y="4039" />
            </Array>
          </mxGeometry>
        </mxCell>
        <mxCell id="edge16" value="" style="html=1;rounded=1;edgeStyle=orthogonalEdgeStyle;dashed=0;startArrow=block;startSize=12;endArrow=none;strokeColor=#595959;exitX=0.500;exitY=0.000;exitDx=0;exitDy=0;entryX=0.500;entryY=0.000;entryDx=0;entryDy=0;" parent="1" source="node16" target="node18" edge="1">
          <mxGeometry width="50" height="50" relative="1" as="geometry">
            <Array as="points">
              <mxPoint x="1327" y="3759" />
              <mxPoint x="1167" y="3759" />
            </Array>
          </mxGeometry>
        </mxCell>
        <mxCell id="edge14" value="" style="html=1;rounded=1;edgeStyle=orthogonalEdgeStyle;dashed=0;startArrow=block;startSize=12;endArrow=none;strokeColor=#595959;exitX=0.500;exitY=0.000;exitDx=0;exitDy=0;entryX=0.500;entryY=0.000;entryDx=0;entryDy=0;" parent="1" source="node17" target="node16" edge="1">
          <mxGeometry width="50" height="50" relative="1" as="geometry">
            <Array as="points">
              <mxPoint x="1107" y="4259" />
              <mxPoint x="1327" y="4259" />
            </Array>
          </mxGeometry>
        </mxCell>
        <mxCell id="edge35" value="" style="html=1;rounded=1;edgeStyle=orthogonalEdgeStyle;dashed=0;startArrow=block;startSize=12;endArrow=none;strokeColor=#595959;exitX=0.500;exitY=0.000;exitDx=0;exitDy=0;entryX=0.250;entryY=0.001;entryDx=0;entryDy=0;" parent="1" source="node27" target="node28" edge="1">
          <mxGeometry width="50" height="50" relative="1" as="geometry">
            <Array as="points">
              <mxPoint x="547" y="4039" />
              <mxPoint x="585" y="4039" />
            </Array>
          </mxGeometry>
        </mxCell>
        <mxCell id="edge12" value="" style="html=1;rounded=1;edgeStyle=orthogonalEdgeStyle;dashed=0;startArrow=block;startSize=12;endArrow=none;strokeColor=#595959;exitX=0.500;exitY=0.000;exitDx=0;exitDy=0;entryX=0.500;entryY=0.000;entryDx=0;entryDy=0;" parent="1" source="node27" target="node18" edge="1">
          <mxGeometry width="50" height="50" relative="1" as="geometry">
            <Array as="points">
              <mxPoint x="547" y="4239" />
              <mxPoint x="1327" y="4239" />
              <mxPoint x="1327" y="3759" />
              <mxPoint x="1167" y="3759" />
            </Array>
          </mxGeometry>
        </mxCell>
        <mxCell id="edge27" value="" style="html=1;rounded=1;edgeStyle=orthogonalEdgeStyle;dashed=0;startArrow=block;startSize=12;endArrow=none;strokeColor=#595959;exitX=0.500;exitY=0.000;exitDx=0;exitDy=0;entryX=0.500;entryY=0.000;entryDx=0;entryDy=0;" parent="1" source="node3" target="node27" edge="1">
          <mxGeometry width="50" height="50" relative="1" as="geometry">
            <Array as="points">
              <mxPoint x="747" y="4959" />
              <mxPoint x="767" y="4959" />
              <mxPoint x="767" y="4299" />
              <mxPoint x="547" y="4299" />
            </Array>
          </mxGeometry>
        </mxCell>
        <mxCell id="edge23" value="" style="html=1;rounded=1;edgeStyle=orthogonalEdgeStyle;dashed=0;startArrow=block;startSize=12;endArrow=none;strokeColor=#595959;exitX=0.500;exitY=0.000;exitDx=0;exitDy=0;entryX=0.500;entryY=0.000;entryDx=0;entryDy=0;" parent="1" source="node7" target="node17" edge="1">
          <mxGeometry width="50" height="50" relative="1" as="geometry">
            <Array as="points">
              <mxPoint x="1327" y="5299" />
              <mxPoint x="1107" y="5299" />
            </Array>
          </mxGeometry>
        </mxCell>
        <mxCell id="edge25" value="" style="html=1;rounded=1;edgeStyle=orthogonalEdgeStyle;dashed=0;startArrow=block;startSize=12;endArrow=none;strokeColor=#595959;exitX=0.500;exitY=0.000;exitDx=0;exitDy=0;entryX=0.250;entryY=0.001;entryDx=0;entryDy=0;" parent="1" source="node9" target="node28" edge="1">
          <mxGeometry width="50" height="50" relative="1" as="geometry">
            <Array as="points">
              <mxPoint x="327" y="4199" />
              <mxPoint x="547" y="4199" />
              <mxPoint x="547" y="4039" />
              <mxPoint x="585" y="4039" />
            </Array>
          </mxGeometry>
        </mxCell>
        <mxCell id="edge2" value="" style="html=1;rounded=1;edgeStyle=orthogonalEdgeStyle;dashed=0;startArrow=block;startSize=12;endArrow=none;strokeColor=#595959;exitX=0.500;exitY=0.000;exitDx=0;exitDy=0;entryX=0.500;entryY=0.000;entryDx=0;entryDy=0;" parent="1" source="node9" target="node27" edge="1">
          <mxGeometry width="50" height="50" relative="1" as="geometry">
            <Array as="points">
              <mxPoint x="327" y="5019" />
              <mxPoint x="747" y="5019" />
              <mxPoint x="747" y="4959" />
              <mxPoint x="767" y="4959" />
              <mxPoint x="767" y="4299" />
              <mxPoint x="547" y="4299" />
            </Array>
          </mxGeometry>
        </mxCell>
        <mxCell id="edge18" value="" style="html=1;rounded=1;edgeStyle=orthogonalEdgeStyle;dashed=0;startArrow=block;startSize=12;endArrow=none;strokeColor=#595959;exitX=0.500;exitY=0.000;exitDx=0;exitDy=0;entryX=0.500;entryY=0.000;entryDx=0;entryDy=0;" parent="1" source="node24" target="node3" edge="1">
          <mxGeometry width="50" height="50" relative="1" as="geometry">
            <Array as="points">
              <mxPoint x="887" y="5039" />
              <mxPoint x="747" y="5039" />
            </Array>
          </mxGeometry>
        </mxCell>
        <mxCell id="edge24" value="" style="html=1;rounded=1;edgeStyle=orthogonalEdgeStyle;dashed=0;startArrow=block;startSize=12;endArrow=none;strokeColor=#595959;exitX=0.500;exitY=0.000;exitDx=0;exitDy=0;entryX=0.500;entryY=0.000;entryDx=0;entryDy=0;" parent="1" source="node19" target="node7" edge="1">
          <mxGeometry width="50" height="50" relative="1" as="geometry">
            <Array as="points">
              <mxPoint x="1107" y="5919" />
              <mxPoint x="1327" y="5919" />
            </Array>
          </mxGeometry>
        </mxCell>
        <mxCell id="edge9" value="" style="html=1;rounded=1;edgeStyle=orthogonalEdgeStyle;dashed=0;startArrow=block;startSize=12;endArrow=none;strokeColor=#595959;exitX=0.500;exitY=0.000;exitDx=0;exitDy=0;entryX=0.500;entryY=0.000;entryDx=0;entryDy=0;" parent="1" source="node12" target="node9" edge="1">
          <mxGeometry width="50" height="50" relative="1" as="geometry">
            <Array as="points">
              <mxPoint x="107" y="5199" />
              <mxPoint x="327" y="5199" />
            </Array>
          </mxGeometry>
        </mxCell>
        <mxCell id="edge26" value="" style="html=1;rounded=1;edgeStyle=orthogonalEdgeStyle;dashed=0;startArrow=block;startSize=12;endArrow=none;strokeColor=#595959;exitX=0.500;exitY=0.001;exitDx=0;exitDy=0;entryX=0.500;entryY=0.000;entryDx=0;entryDy=0;" parent="1" source="node13" target="node9" edge="1">
          <mxGeometry width="50" height="50" relative="1" as="geometry">
            <Array as="points">
              <mxPoint x="287" y="5819" />
              <mxPoint x="107" y="5819" />
              <mxPoint x="107" y="5199" />
              <mxPoint x="327" y="5199" />
            </Array>
          </mxGeometry>
        </mxCell>
      </root>
    </mxGraphModel>
  </diagram>
</mxfile>
